<svg version="1.1" viewBox="0 0 512 512" xmlns="http://www.w3.org/2000/svg">
<path d="m0 416c0 17.7 14.3 32 32 32h54.7c12.3 28.3 40.5 48 73.3 48s61-19.7 73.3-48h246.7c17.7 0 32-14.3 32-32s-14.3-32-32-32h-246.7c-12.3-28.3-40.5-48-73.3-48s-61 19.7-73.3 48h-54.7c-17.7 0-32 14.3-32 32zm128 0a32 32 0 1 1 64 0 32 32 0 1 1-64 0zm192-160a32 32 0 1 1 64 0 32 32 0 1 1-64 0zm32-80c-32.8 0-61 19.7-73.3 48h-246.7c-17.7 0-32 14.3-32 32s14.3 32 32 32h246.7c12.3 28.3 40.5 48 73.3 48s61-19.7 73.3-48h54.7c17.7 0 32-14.3 32-32s-14.3-32-32-32h-54.7c-12.3-28.3-40.5-48-73.3-48zm-160-48a32 32 0 1 1 0-64 32 32 0 1 1 0 64zm73.3-64c-12.3-28.3-40.5-48-73.3-48s-61 19.7-73.3 48h-86.7c-17.7 0-32 14.3-32 32s14.3 32 32 32h86.7c12.3 28.3 40.5 48 73.3 48s61-19.7 73.3-48h214.7c17.7 0 32-14.3 32-32s-14.3-32-32-32h-214.7z" fill="#666"/>
</svg>
